<svg width="20" height="20" viewBox="0 0 20 20" fill="none" xmlns="http://www.w3.org/2000/svg">
<path d="M14.1666 9.00371C14.1666 8.7157 14.1666 8.57169 14.21 8.44331C14.336 8.07037 14.6681 7.92563 15.0009 7.77407C15.375 7.60368 15.562 7.51849 15.7473 7.5035C15.9577 7.48649 16.1685 7.53181 16.3483 7.63274C16.5867 7.76654 16.753 8.02078 16.9232 8.22751C17.7093 9.18237 18.1024 9.6598 18.2462 10.1863C18.3623 10.6112 18.3623 11.0555 18.2462 11.4804C18.0365 12.2483 17.3737 12.892 16.8831 13.4878C16.6322 13.7926 16.5067 13.945 16.3483 14.0339C16.1685 14.1349 15.9577 14.1802 15.7473 14.1632C15.562 14.1482 15.375 14.063 15.0009 13.8926C14.6681 13.741 14.336 13.5963 14.21 13.2234C14.1666 13.095 14.1666 12.951 14.1666 12.663V9.00371Z" stroke="#0D9B8A" stroke-width="1.5"/>
<path d="M5.83331 9.00366C5.83331 8.64096 5.82313 8.31499 5.52991 8.05998C5.42325 7.96723 5.28186 7.90283 4.99907 7.77402C4.62499 7.60364 4.43794 7.51844 4.25261 7.50345C3.69657 7.45848 3.39741 7.83799 3.07675 8.22747C2.2906 9.18233 1.89753 9.65976 1.7537 10.1863C1.63763 10.6111 1.63763 11.0554 1.7537 11.4803C1.96348 12.2482 2.62625 12.8919 3.11682 13.4878C3.42605 13.8634 3.72145 14.2061 4.25261 14.1631C4.43794 14.1481 4.62499 14.0629 4.99907 13.8926C5.28186 13.7637 5.42325 13.6993 5.52991 13.6066C5.82313 13.3516 5.83331 13.0256 5.83331 12.6629V9.00366Z" stroke="#0D9B8A" stroke-width="1.5"/>
<path d="M4.16663 7.5C4.16663 4.73858 6.7783 2.5 9.99996 2.5C13.2216 2.5 15.8333 4.73858 15.8333 7.5" stroke="#0D9B8A" stroke-width="1.5" stroke-linecap="square" stroke-linejoin="round"/>
<path d="M15.8333 14.1667V14.8334C15.8333 16.3061 14.3409 17.5 12.5 17.5H10.8333" stroke="#0D9B8A" stroke-width="1.5" stroke-linecap="round" stroke-linejoin="round"/>
</svg>
