<svg width="24" height="24" viewBox="0 0 24 24" fill="none" xmlns="http://www.w3.org/2000/svg">
<path d="M6.93654 22.6472C7.91879 22.75 6.48161 22.75 8.02271 22.75C8.56245 22.75 9 22.3124 9 21.7727C9 21.233 8.56245 20.7954 8.02271 20.7954C6.41409 20.7954 8.00785 20.7941 7.1384 20.7032C6.28448 20.6138 5.80055 20.4471 5.44272 20.194C5.20127 20.0233 4.98889 19.8222 4.8111 19.5978C4.55553 19.2753 4.38609 18.8425 4.29386 18.0558C4.19893 17.246 4.19735 16.1887 4.19735 14.6652L4.19727 11.765C4.19725 11.498 4.19742 10.8595 4.47804 10.3873C4.65097 10.0963 4.87239 9.8532 5.09984 9.72938C5.46635 9.52986 5.88654 9.4165 6.33321 9.4165L7.37358 9.45299C7.75367 9.46088 8.19721 9.44887 8.62536 9.33415C9.45933 9.11069 10.1107 8.45928 10.3342 7.62531C10.4489 7.19716 10.4609 6.75362 10.453 6.37353L10.4165 5.33316C10.4165 4.86547 10.5409 4.45834 10.7583 4.07993C10.885 3.85934 11.1057 3.65745 11.4105 3.48014C11.8726 3.21123 12.426 3.20874 12.7642 3.20722C13.1023 3.20569 13.4591 3.20452 13.7572 3.20452C15.5913 3.20452 16.2584 3.21847 16.7618 3.39582C17.6344 3.70328 18.3001 4.34492 18.6102 5.13029C18.6878 5.32693 18.7427 5.58535 18.7721 6.0333C18.8021 6.48997 18.8026 7.07292 18.8026 7.91318V12.0263C18.8026 12.564 19.2386 13 19.7763 13C20.3141 13 20.75 12.564 20.75 12.0263V7.88C20.75 7.08084 20.75 6.43328 20.7153 5.9047C20.6795 5.36007 20.6039 4.8744 20.4206 4.41024C19.8918 3.07093 18.7834 2.03666 17.4068 1.55166C16.548 1.24907 15.0759 1.24946 13.5209 1.25C10.6813 1.24964 8.99465 1.24943 7.61221 1.73651C5.39221 2.51869 3.61848 4.18143 2.77509 6.31749C2.49397 7.02945 2.36944 7.79416 2.30919 8.711C2.25 9.61171 2.25 10.7243 2.25 12.1426V12.1426V14.7261C2.24998 16.1742 2.24996 17.3469 2.35985 18.2842C2.47396 19.2576 2.71721 20.0955 3.28704 20.8145C3.58222 21.187 3.93077 21.5158 4.32114 21.7919C5.0659 22.3185 5.92712 22.5416 6.93654 22.6472Z" fill="#648B86"/>
<path fill-rule="evenodd" clip-rule="evenodd" d="M17.0079 14.3111C16.4873 14.2499 15.8317 14.2499 15.0457 14.2499H14.4543C13.6683 14.2499 13.0127 14.2499 12.4922 14.3111C11.9491 14.375 11.4394 14.5159 11.0187 14.884C10.5836 15.2647 10.4027 15.7483 10.3228 16.2683C10.2499 16.7426 10.25 17.3328 10.25 18.0076V18.9923C10.25 19.6671 10.2499 20.2573 10.3228 20.7315C10.4027 21.2516 10.5836 21.7351 11.0187 22.1159C11.4394 22.484 11.9491 22.6249 12.4922 22.6887C13.0127 22.75 13.6683 22.75 14.4543 22.7499H15.0457C15.8317 22.75 16.4873 22.75 17.0079 22.6887C17.5509 22.6249 18.0606 22.484 18.4813 22.1159C18.7899 21.8459 18.9706 21.5242 19.0781 21.1745C19.211 21.2601 19.3369 21.3355 19.4557 21.3983C19.8266 21.5944 20.3357 21.7816 20.8733 21.5484C21.4417 21.3019 21.6202 20.775 21.6873 20.3602C21.7502 19.9711 21.7501 19.4615 21.75 18.9017V18.0981C21.7501 17.5384 21.7502 17.0288 21.6873 16.6397C21.6202 16.2249 21.4417 15.698 20.8733 15.4515C20.3357 15.2183 19.8266 15.4055 19.4557 15.6016C19.3369 15.6643 19.211 15.7398 19.0781 15.8253C18.9706 15.4756 18.7899 15.154 18.4813 14.884C18.0606 14.5159 17.5509 14.375 17.0079 14.3111ZM20.2099 20.0994C19.9912 19.9838 19.6585 19.7632 19.249 19.4692C19.2501 19.3156 19.25 19.1565 19.25 18.9924V18.0078C19.25 17.8437 19.2501 17.6847 19.249 17.5311C19.6585 17.237 19.9912 17.0164 20.2099 16.9008C20.2478 17.1554 20.25 17.5364 20.25 18.158V18.8422C20.25 19.4638 20.2478 19.8449 20.2099 20.0994Z" fill="#648B86"/>
</svg>
