<svg width="20" height="20" viewBox="0 0 20 20" fill="none" xmlns="http://www.w3.org/2000/svg">
<path d="M2.08333 9.99998C2.08333 6.26803 2.08333 4.40205 3.2427 3.24268C4.40207 2.08331 6.26804 2.08331 9.99999 2.08331C13.7319 2.08331 15.5979 2.08331 16.7573 3.24268C17.9167 4.40205 17.9167 6.26803 17.9167 9.99998C17.9167 13.7319 17.9167 15.5979 16.7573 16.7573C15.5979 17.9166 13.7319 17.9166 9.99999 17.9166C6.26804 17.9166 4.40207 17.9166 3.2427 16.7573C2.08333 15.5979 2.08333 13.7319 2.08333 9.99998Z" stroke="#0D9B8A" stroke-width="1.5"/>
<path d="M10.2018 14.1667V10C10.2018 9.60718 10.2018 9.41076 10.0798 9.28873C9.95774 9.16669 9.76132 9.16669 9.36848 9.16669" stroke="#0D9B8A" stroke-width="1.5" stroke-linecap="round" stroke-linejoin="round"/>
<path d="M9.99332 6.66669H10.0008" stroke="#0D9B8A" stroke-width="2" stroke-linecap="round" stroke-linejoin="round"/>
</svg>
