<svg width="20" height="20" viewBox="0 0 20 20" fill="none" xmlns="http://www.w3.org/2000/svg">
<path d="M5.83333 6.98274H9.58333M14.1667 6.98274H12.0833M9.58333 6.98274H12.0833M9.58333 6.98274V5.83331M12.0833 6.98274C11.6438 8.55465 10.7233 10.0406 9.67261 11.3464M6.99404 14.1666C7.84337 13.3857 8.80261 12.4278 9.67261 11.3464M9.67261 11.3464C9.1369 10.7184 8.3869 9.70217 8.17261 9.2424M9.67261 11.3464L11.2798 13.0172" stroke="#0D9B8A" stroke-width="1.5" stroke-linecap="round" stroke-linejoin="round"/>
<path d="M2.08333 9.99998C2.08333 6.26803 2.08333 4.40205 3.2427 3.24268C4.40207 2.08331 6.26804 2.08331 9.99999 2.08331C13.7319 2.08331 15.5979 2.08331 16.7573 3.24268C17.9167 4.40205 17.9167 6.26803 17.9167 9.99998C17.9167 13.7319 17.9167 15.5979 16.7573 16.7573C15.5979 17.9166 13.7319 17.9166 9.99999 17.9166C6.26804 17.9166 4.40207 17.9166 3.2427 16.7573C2.08333 15.5979 2.08333 13.7319 2.08333 9.99998Z" stroke="#0D9B8A" stroke-width="1.5"/>
</svg>
