<svg width="20" height="20" viewBox="0 0 20 20" fill="none" xmlns="http://www.w3.org/2000/svg">
<path d="M9.99999 9.99999C10.4583 9.99999 10.8507 9.8368 11.1771 9.51041C11.5035 9.18402 11.6667 8.79166 11.6667 8.33332C11.6667 7.87499 11.5035 7.48263 11.1771 7.15624C10.8507 6.82985 10.4583 6.66666 9.99999 6.66666C9.54166 6.66666 9.1493 6.82985 8.82291 7.15624C8.49652 7.48263 8.33333 7.87499 8.33333 8.33332C8.33333 8.79166 8.49652 9.18402 8.82291 9.51041C9.1493 9.8368 9.54166 9.99999 9.99999 9.99999ZM9.99999 16.125C11.6944 14.5694 12.9514 13.1562 13.7708 11.8854C14.5903 10.6146 15 9.4861 15 8.49999C15 6.9861 14.5174 5.74652 13.5521 4.78124C12.5868 3.81596 11.4028 3.33332 9.99999 3.33332C8.59722 3.33332 7.41319 3.81596 6.44791 4.78124C5.48263 5.74652 4.99999 6.9861 4.99999 8.49999C4.99999 9.4861 5.40972 10.6146 6.22916 11.8854C7.04861 13.1562 8.30555 14.5694 9.99999 16.125ZM9.99999 18.3333C7.76388 16.4305 6.09374 14.6632 4.98958 13.0312C3.88541 11.3993 3.33333 9.88888 3.33333 8.49999C3.33333 6.41666 4.00347 4.75693 5.34374 3.52082C6.68402 2.28471 8.23611 1.66666 9.99999 1.66666C11.7639 1.66666 13.316 2.28471 14.6562 3.52082C15.9965 4.75693 16.6667 6.41666 16.6667 8.49999C16.6667 9.88888 16.1146 11.3993 15.0104 13.0312C13.9062 14.6632 12.2361 16.4305 9.99999 18.3333Z" fill="#33554E"/>
</svg>
