<svg width="143" height="27" viewBox="0 0 143 27" fill="none" xmlns="http://www.w3.org/2000/svg">
<path d="M21.248 12V16.8H3.67997V12H21.248ZM8.19197 14.4L6.62397 24.032L3.93597 21.024H22.304V26.4H-2.82526e-05L1.82397 14.4L-2.82526e-05 2.40002H22.144V7.77602H3.93597L6.62397 4.76802L8.19197 14.4ZM25.6942 1.76002H32.2542V26.4H25.6942V1.76002ZM46.7305 26.912C44.3838 26.912 42.3358 26.5174 40.5865 25.728C38.8371 24.9174 37.4718 23.7867 36.4905 22.336C35.5091 20.864 35.0185 19.1787 35.0185 17.28C35.0185 15.3387 35.5091 13.6427 36.4905 12.192C37.4718 10.7414 38.8371 9.61069 40.5865 8.80002C42.3358 7.98936 44.3838 7.58402 46.7305 7.58402C49.0558 7.58402 51.0931 7.98936 52.8425 8.80002C54.6131 9.61069 55.9891 10.7414 56.9705 12.192C57.9518 13.6427 58.4425 15.3387 58.4425 17.28C58.4425 19.1787 57.9518 20.864 56.9705 22.336C55.9891 23.7867 54.6131 24.9174 52.8425 25.728C51.0931 26.5174 49.0558 26.912 46.7305 26.912ZM46.7305 22.08C47.7971 22.08 48.7038 21.888 49.4505 21.504C50.2185 21.12 50.8051 20.5654 51.2105 19.84C51.6158 19.1147 51.8185 18.2614 51.8185 17.28C51.8185 16.256 51.6158 15.392 51.2105 14.688C50.8051 13.9627 50.2185 13.408 49.4505 13.024C48.7038 12.64 47.7971 12.448 46.7305 12.448C45.6638 12.448 44.7465 12.64 43.9785 13.024C43.2105 13.408 42.6238 13.9627 42.2185 14.688C41.8131 15.392 41.6105 16.2454 41.6105 17.248C41.6105 18.2507 41.8131 19.1147 42.2185 19.84C42.6238 20.5654 43.2105 21.12 43.9785 21.504C44.7465 21.888 45.6638 22.08 46.7305 22.08ZM60.2052 8.12802H66.7652L67.9492 15.424V26.4H61.4212V14.432L60.2052 8.12802ZM74.6692 7.58402C76.4186 7.58402 77.9119 7.93602 79.1492 8.64002C80.3866 9.34402 81.3252 10.336 81.9652 11.616C82.6266 12.896 82.9572 14.4107 82.9572 16.16V26.4H76.4292V17.12C76.4292 15.7547 76.0772 14.7094 75.3732 13.984C74.6906 13.2587 73.6986 12.896 72.3972 12.896C71.5012 12.896 70.7119 13.088 70.0292 13.472C69.3679 13.856 68.8559 14.4 68.4932 15.104C68.1306 15.808 67.9492 16.64 67.9492 17.6L65.9332 16.544C66.1892 14.6027 66.7332 12.9707 67.5652 11.648C68.3972 10.304 69.4212 9.29069 70.6372 8.60802C71.8532 7.92536 73.1972 7.58402 74.6692 7.58402ZM108.111 18.688C107.941 20.3307 107.343 21.7707 106.319 23.008C105.295 24.2454 103.962 25.2054 102.319 25.888C100.698 26.5707 98.8739 26.912 96.8472 26.912C94.6072 26.912 92.6339 26.5067 90.9272 25.696C89.2206 24.8854 87.8872 23.7547 86.9272 22.304C85.9672 20.8534 85.4872 19.1787 85.4872 17.28C85.4872 15.36 85.9672 13.6747 86.9272 12.224C87.8872 10.7734 89.2206 9.64269 90.9272 8.83202C92.6339 8.00002 94.6072 7.58402 96.8472 7.58402C98.8739 7.58402 100.698 7.93602 102.319 8.64002C103.962 9.32269 105.295 10.2827 106.319 11.52C107.343 12.736 107.941 14.176 108.111 15.84H101.615C101.381 14.752 100.837 13.92 99.9832 13.344C99.1299 12.7467 98.0846 12.448 96.8472 12.448C95.8872 12.448 95.0446 12.64 94.3192 13.024C93.6152 13.3867 93.0606 13.9307 92.6552 14.656C92.2712 15.36 92.0792 16.2347 92.0792 17.28C92.0792 18.304 92.2712 19.1787 92.6552 19.904C93.0606 20.608 93.6152 21.152 94.3192 21.536C95.0446 21.8987 95.8872 22.08 96.8472 22.08C98.0846 22.08 99.1299 21.7707 99.9832 21.152C100.858 20.5334 101.402 19.712 101.615 18.688H108.111ZM110.694 1.76002H117.254V26.4H110.694V1.76002ZM123.942 7.58402C125.713 7.58402 127.206 7.93602 128.422 8.64002C129.66 9.34402 130.609 10.336 131.27 11.616C131.932 12.896 132.262 14.4107 132.262 16.16V26.4H125.702V17.12C125.702 15.7547 125.35 14.7094 124.646 13.984C123.964 13.2587 122.972 12.896 121.67 12.896C120.774 12.896 119.985 13.088 119.302 13.472C118.641 13.856 118.129 14.4 117.766 15.104C117.425 15.808 117.254 16.64 117.254 17.6L115.206 16.544C115.462 14.6027 116.006 12.9707 116.838 11.648C117.67 10.304 118.694 9.29069 119.91 8.60802C121.148 7.92536 122.492 7.58402 123.942 7.58402ZM135.632 7.84002L138.928 8.48002L142.192 7.84002V26.4H135.632V7.84002ZM138.896 6.33602C137.765 6.33602 136.848 6.05869 136.144 5.50402C135.44 4.92802 135.088 4.14936 135.088 3.16802C135.088 2.20802 135.44 1.44002 136.144 0.864023C136.848 0.288023 137.765 2.28882e-05 138.896 2.28882e-05C140.069 2.28882e-05 140.997 0.288023 141.68 0.864023C142.384 1.44002 142.736 2.20802 142.736 3.16802C142.736 4.14936 142.384 4.92802 141.68 5.50402C140.997 6.05869 140.069 6.33602 138.896 6.33602Z" fill="white"/>
</svg>
