<svg width="40" height="40" viewBox="0 0 40 40" fill="none" xmlns="http://www.w3.org/2000/svg">
<path d="M19.9997 2.08301C25.0135 2.08301 29.1665 6.03752 29.1667 11.0225V12.1104C29.895 12.389 30.558 12.7454 31.1608 13.1963C33.1348 14.6727 34.2374 16.9811 35.1179 20.0508L35.1384 20.1221C35.9283 22.876 36.5486 25.0382 36.8581 26.7822C37.1723 28.5533 37.2022 30.0692 36.6599 31.4717C36.0509 33.0463 34.9726 34.4042 33.57 35.3779C32.1957 36.3318 30.0612 36.9498 27.7399 37.3398C25.3715 37.7378 22.6343 37.9248 19.9216 37.916C17.2088 37.9072 14.4855 37.702 12.1442 37.2998C9.85302 36.9062 7.75417 36.2976 6.42938 35.3779C5.02672 34.4041 3.94847 33.0464 3.33954 31.4717C2.79722 30.0692 2.82801 28.5534 3.14227 26.7822C3.45175 25.0382 4.07207 22.8761 4.862 20.1221L4.88153 20.0508C5.80216 16.8411 6.97835 14.5307 8.98602 13.0889C9.55284 12.6818 10.1684 12.3601 10.8337 12.1045V11.0225C10.8338 6.03762 14.986 2.08315 19.9997 2.08301ZM18.3337 16.667C17.4133 16.667 16.6669 17.4127 16.6667 18.333C16.6667 19.2535 17.4132 20 18.3337 20H21.6667C22.5871 20 23.3337 19.2535 23.3337 18.333C23.3335 17.4127 22.587 16.667 21.6667 16.667H18.3337ZM19.9997 5.41699C16.7295 5.41714 14.1668 7.97449 14.1667 11.0225V11.3691C15.0075 11.2853 15.9055 11.25 16.864 11.25H23.1364C24.0998 11.25 24.9973 11.2887 25.8337 11.374V11.0225C25.8335 7.97441 23.27 5.41699 19.9997 5.41699Z" fill="white"/>
</svg>
