<svg width="20" height="20" viewBox="0 0 20 20" fill="none" xmlns="http://www.w3.org/2000/svg">
<g clip-path="url(#clip0_2118_5493)">
<path d="M10.4167 2.5H9.58334C5.85139 2.5 3.98541 2.5 2.82604 3.65937C1.66667 4.81874 1.66667 6.68471 1.66667 10.4167C1.66667 14.1486 1.66667 16.0146 2.82604 17.174C3.98541 18.3333 5.85139 18.3333 9.58334 18.3333C13.3153 18.3333 15.1813 18.3333 16.3406 17.174C17.5 16.0146 17.5 14.1486 17.5 10.4167V9.58333" stroke="#0D9B8A" stroke-width="1.5" stroke-linecap="round"/>
<path d="M18.3333 4.58332C18.3333 6.19415 17.0275 7.49999 15.4167 7.49999C13.8058 7.49999 12.5 6.19415 12.5 4.58332C12.5 2.97249 13.8058 1.66666 15.4167 1.66666C17.0275 1.66666 18.3333 2.97249 18.3333 4.58332Z" stroke="#0D9B8A" stroke-width="1.5"/>
<path d="M5.83333 9.16666H9.16666" stroke="#0D9B8A" stroke-width="1.5" stroke-linecap="round" stroke-linejoin="round"/>
<path d="M5.83333 13.3333H12.5" stroke="#0D9B8A" stroke-width="1.5" stroke-linecap="round" stroke-linejoin="round"/>
</g>
<defs>
<clipPath id="clip0_2118_5493">
<rect width="20" height="20" fill="white"/>
</clipPath>
</defs>
</svg>
