<svg width="16" height="16" viewBox="0 0 16 16" fill="none" xmlns="http://www.w3.org/2000/svg">
<path d="M13.2915 4.10163C13.4196 4.44682 13.2436 4.83049 12.8984 4.95857C12.1925 5.22047 11.4181 5.76563 10.6341 6.48592C9.85754 7.19936 9.10924 8.04938 8.45273 8.87382C7.79752 9.69663 7.2419 10.4836 6.84989 11.0654C6.65412 11.356 6.49973 11.5945 6.39475 11.7596C6.34227 11.8421 6.30218 11.9063 6.27547 11.9493L6.24558 11.9978L6.23841 12.0095L6.23681 12.0121C6.11435 12.214 5.89393 12.3365 5.65784 12.3335C5.42172 12.3304 5.20484 12.2027 5.08768 11.9976C4.45485 10.8902 3.93208 10.3915 3.61753 10.1714C3.46122 10.0619 3.35489 10.0202 3.30812 10.0053C3.29708 10.0018 3.28897 9.99963 3.28387 9.99841C2.9387 9.97318 2.6665 9.68514 2.6665 9.33354C2.6665 8.96535 2.96498 8.66687 3.33317 8.66687C3.41184 8.67217 3.59781 8.69316 3.71239 8.73471C3.89479 8.79274 4.12179 8.89679 4.38215 9.07905C4.75533 9.34028 5.19326 9.75927 5.67044 10.4302L5.74414 10.3204C6.14993 9.71815 6.72666 8.901 7.40969 8.04325C8.09142 7.18714 8.88723 6.28021 9.73201 5.50407C10.5693 4.73478 11.4934 4.05771 12.4346 3.7085C12.7798 3.58043 13.1635 3.75643 13.2915 4.10163Z" fill="#648B86"/>
</svg>
