<svg width="16" height="16" viewBox="0 0 16 16" fill="none" xmlns="http://www.w3.org/2000/svg">
<path d="M11.5965 4.03536C11.7611 4.36468 11.6276 4.76513 11.2983 4.92978C9.9753 5.59129 8.536 6.98326 7.29868 8.4147C7.05791 8.69325 6.63691 8.72387 6.35836 8.48309C6.07981 8.24231 6.04918 7.82132 6.28996 7.54277C7.54486 6.091 9.12823 4.52411 10.702 3.73721C11.0313 3.57256 11.4318 3.70604 11.5965 4.03536Z" fill="#648B86"/>
<path d="M1.05763 8.95163C1.20716 8.61517 1.60114 8.46364 1.93759 8.61318C1.98279 8.63375 2.0989 8.69204 2.20183 8.76064C2.34447 8.85141 2.5374 8.98913 2.77012 9.19082C3.11389 9.48875 3.5429 9.9249 4.02429 10.5533C4.23449 10.4418 4.49769 10.4468 4.70898 10.5888C5.01459 10.7941 5.09588 11.2083 4.89053 11.5139C4.78397 11.6725 4.70339 11.798 4.65012 11.8828C4.62348 11.9251 4.60369 11.9573 4.5909 11.9782L4.577 12.0012L4.57403 12.0061C4.4572 12.2033 4.24698 12.3272 4.01789 12.3333C3.78878 12.3394 3.5726 12.2273 3.44547 12.0366C2.80902 11.082 2.2645 10.517 1.89688 10.1984C1.71293 10.039 1.57253 9.94059 1.486 9.88552C1.44269 9.85796 1.41272 9.84116 1.39736 9.83292L1.38656 9.82728C1.05677 9.6746 0.909507 9.2849 1.05763 8.95163Z" fill="#648B86"/>
<path d="M14.9299 4.03536C15.0946 4.36468 14.9611 4.76512 14.6318 4.92978C13.1027 5.69433 11.4293 7.4268 10.099 9.04804C9.44458 9.84568 8.89156 10.5932 8.50218 11.1414C8.30767 11.4153 8.15445 11.6387 8.05032 11.793C7.99826 11.8702 7.9585 11.93 7.93201 11.9701L7.90236 12.0152L7.89524 12.0261L7.89365 12.0286C7.77167 12.217 7.56271 12.3319 7.33823 12.3335C7.11371 12.335 6.9035 12.2234 6.77896 12.0366C6.14251 11.082 5.598 10.517 5.23038 10.1984C5.04643 10.039 4.90603 9.94059 4.8195 9.88552C4.77619 9.85796 4.74622 9.84116 4.73085 9.83292L4.72005 9.82728C4.39027 9.6746 4.243 9.2849 4.39112 8.95163C4.54066 8.61517 4.93463 8.46364 5.27109 8.61318C5.32475 8.63959 5.45273 8.70607 5.53533 8.76064C5.67796 8.85141 5.87089 8.98913 6.10362 9.19082C6.43834 9.48091 6.85386 9.90203 7.31987 10.5041C7.35048 10.4606 7.38225 10.4156 7.41515 10.3693C7.81743 9.80295 8.38941 9.02966 9.06828 8.20229C10.4047 6.57353 12.2313 4.63934 14.0355 3.73721C14.3648 3.57256 14.7653 3.70604 14.9299 4.03536Z" fill="#648B86"/>
</svg>
