<svg width="20" height="20" viewBox="0 0 20 20" fill="none" xmlns="http://www.w3.org/2000/svg">
<path d="M10.0479 1.45801C11.8733 1.458 13.3073 1.45789 14.4268 1.6084C15.5739 1.76264 16.4841 2.08563 17.1992 2.80078C17.9144 3.51594 18.2374 4.42605 18.3916 5.57324C18.5421 6.69271 18.542 8.12666 18.542 9.95215V10.0479C18.542 11.8733 18.5421 13.3073 18.3916 14.4268C18.2374 15.5739 17.9144 16.4841 17.1992 17.1992C16.4841 17.9144 15.5739 18.2374 14.4268 18.3916C13.3073 18.5421 11.8733 18.542 10.0479 18.542H9.95215C8.12666 18.542 6.69271 18.5421 5.57324 18.3916C4.42605 18.2374 3.51594 17.9144 2.80078 17.1992C2.08563 16.4841 1.76264 15.5739 1.6084 14.4268C1.45789 13.3073 1.458 11.8733 1.45801 10.0479V9.95215C1.458 8.12666 1.45789 6.69271 1.6084 5.57324C1.76264 4.42605 2.08563 3.51594 2.80078 2.80078C3.51594 2.08563 4.42605 1.76264 5.57324 1.6084C6.69271 1.45789 8.12666 1.458 9.95215 1.45801H10.0479ZM14.21 13.7432C11.9871 11.3313 7.97535 11.4547 5.79785 13.7354C5.55968 13.985 5.56877 14.3808 5.81836 14.6191C5.9394 14.7346 6.09494 14.792 6.25 14.792H13.75C13.9015 14.792 14.0537 14.7367 14.1738 14.626C14.4273 14.3921 14.4436 13.9969 14.21 13.7432ZM9.99316 5.20801C8.49659 5.20801 7.28125 6.42038 7.28125 7.91699C7.28143 9.41345 8.4967 10.625 9.99316 10.625C11.4895 10.6249 12.7039 9.41338 12.7041 7.91699C12.7041 6.42046 11.4896 5.20813 9.99316 5.20801Z" fill="#33554E"/>
</svg>
