<svg width="32" height="32" viewBox="0 0 32 32" fill="none" xmlns="http://www.w3.org/2000/svg">
<path d="M23.7413 19.7829C23.8963 19.8752 24.0879 19.9833 24.3048 20.1057C25.2552 20.6419 26.6919 21.4524 27.6761 22.4158C28.2917 23.0183 28.8765 23.8123 28.9829 24.785C29.0959 25.8195 28.6447 26.7902 27.7393 27.6528C26.1774 29.1408 24.303 30.3333 21.8786 30.3333H10.1209C7.69649 30.3333 5.82211 29.1408 4.26018 27.6528C3.35483 26.7902 2.90354 25.8195 3.01662 24.785C3.12294 23.8123 3.70782 23.0183 4.32337 22.4158C5.3076 21.4524 6.74428 20.6419 7.69469 20.1057C7.91157 19.9833 8.10316 19.8752 8.25823 19.7829C12.997 16.9612 19.0025 16.9612 23.7413 19.7829Z" fill="#12A594"/>
<path d="M8.99975 8.66666C8.99975 4.80066 12.1338 1.66666 15.9997 1.66666C19.8657 1.66666 22.9997 4.80066 22.9997 8.66666C22.9997 12.5326 19.8657 15.6667 15.9997 15.6667C12.1338 15.6667 8.99975 12.5326 8.99975 8.66666Z" fill="#12A594"/>
</svg>
