<svg width="24" height="16" viewBox="0 0 24 16" fill="none" xmlns="http://www.w3.org/2000/svg">
<g clip-path="url(#clip0_2572_5)">
<path d="M0 0.000244141H24V15.9999H0V0.000244141Z" fill="#D80027"/>
<path d="M0 11.1305H24V15.9999H0V11.1305Z" fill="#6DA544"/>
<path d="M0 0.000244141H24V4.89939H0V0.000244141Z" fill="#338AF3"/>
<path d="M0 5.88489H24V10.0875H0V5.88489Z" fill="white"/>
<path d="M0 0.000244141H24V4.89939H0V0.000244141Z" fill="#338AF3"/>
<path d="M8.84475 2.44948C8.84475 1.70023 9.37134 1.07422 10.0746 0.920699C9.96439 0.896561 9.85195 0.88435 9.73917 0.884277C8.8747 0.884277 8.17397 1.58501 8.17397 2.44948C8.17397 3.31395 8.8747 4.01469 9.73917 4.01469C9.85439 4.01469 9.96651 4.00189 10.0746 3.97827C9.37134 3.82475 8.84475 3.19873 8.84475 2.44948ZM10.9996 3.16091L11.1056 3.48702H11.4485L11.1711 3.68862L11.277 4.01469L10.9996 3.81312L10.7222 4.01469L10.8282 3.68862L10.5508 3.48702H10.8937L10.9996 3.16091ZM12.094 3.16091L12.2 3.48702H12.5429L12.2654 3.68862L12.3714 4.01469L12.094 3.81312L11.8166 4.01469L11.9226 3.68862L11.6452 3.48702H11.988L12.094 3.16091ZM13.1884 3.16091L13.2944 3.48702H13.6372L13.3599 3.68862L13.4658 4.01469L13.1884 3.81312L12.911 4.01469L13.017 3.68862L12.7395 3.48702H13.0824L13.1884 3.16091ZM14.2828 3.16091L14.3888 3.48702H14.7317L14.4543 3.68862L14.5603 4.01469L14.2828 3.81312L14.0054 4.01469L14.1114 3.68862L13.834 3.48702H14.1768L14.2828 3.16091ZM15.3772 3.16091L15.4832 3.48702H15.8261L15.5487 3.68862L15.6547 4.01469L15.3772 3.81312L15.0998 4.01469L15.2058 3.68862L14.9284 3.48702H15.2713L15.3772 3.16091ZM12.094 2.02259L12.2 2.34865H12.5429L12.2654 2.55022L12.3714 2.87633L12.094 2.67481L11.8166 2.87633L11.9226 2.55022L11.6452 2.34865H11.988L12.094 2.02259ZM13.1884 2.02259L13.2944 2.34865H13.6372L13.3599 2.55022L13.4658 2.87633L13.1884 2.67481L12.911 2.87633L13.017 2.55022L12.7395 2.34865H13.0824L13.1884 2.02259ZM14.2828 2.02259L14.3888 2.34865H14.7317L14.4543 2.55022L14.5603 2.87633L14.2828 2.67481L14.0054 2.87633L14.1114 2.55022L13.834 2.34865H14.1768L14.2828 2.02259ZM15.3772 2.02259L15.4832 2.34865H15.8261L15.5487 2.55022L15.6547 2.87633L15.3772 2.67481L15.0998 2.87633L15.2058 2.55022L14.9284 2.34865H15.2713L15.3772 2.02259ZM13.1884 0.884277L13.2944 1.21034H13.6372L13.3599 1.4119L13.4658 1.73801L13.1884 1.53645L12.911 1.73801L13.017 1.4119L12.7395 1.21034H13.0824L13.1884 0.884277ZM14.2828 0.884277L14.3888 1.21034H14.7317L14.4543 1.4119L14.5603 1.73801L14.2828 1.53645L14.0054 1.73801L14.1114 1.4119L13.834 1.21034H14.1768L14.2828 0.884277ZM15.3772 0.884277L15.4832 1.21034H15.8261L15.5487 1.4119L15.6547 1.73801L15.3772 1.53645L15.0998 1.73801L15.2058 1.4119L14.9284 1.21034H15.2713L15.3772 0.884277Z" fill="white"/>
</g>
<defs>
<clipPath id="clip0_2572_5">
<rect width="24" height="16" rx="2" fill="white"/>
</clipPath>
</defs>
</svg>
